<svg viewBox="0 0 567 209" fill="none" xmlns="http://www.w3.org/2000/svg">
  <path d="M117.436 207.036V154.604L118.529 153.51H129.452L130.545 154.604V207.036L129.452 208.13H118.529L117.436 207.036Z" class="spark" />
  <path d="M117.436 53.5225V1.09339L118.529 0H129.452L130.545 1.09339V53.5225L129.452 54.6159H118.529L117.436 53.5225Z" class="spark" />
  <path d="M69.9539 169.238H68.4094L60.6869 161.512V159.967L78.7201 141.938L86.8976 141.942L87.9948 143.031V151.209L69.9539 169.238Z" class="spark" />
  <path d="M69.9462 38.8917H68.4017L60.6792 46.6181V48.1626L78.7124 66.192L86.8899 66.1882L87.9871 65.0986V56.9212L69.9462 38.8917Z" class="spark" />
  <path d="M1.09339 97.5104H75.3711L76.4645 98.6038V109.526L75.3711 110.62H1.09339L0 109.526V98.6038L1.09339 97.5104Z" class="spark" />
  <path d="M495.46 98H565.371L566.465 99.0934V110.016L565.371 111.11H491.094L490 110.016L494.366 99.0934L495.46 98Z" class="spark" />
  <path
    d="M440.304 159.337C438.387 159.337 436.587 159.183 434.907 158.875C433.249 158.591 431.876 158.224 430.787 157.774L434.196 146.482C435.972 147.026 437.57 147.322 438.99 147.369C440.435 147.417 441.677 147.085 442.719 146.375C443.784 145.665 444.649 144.457 445.311 142.753L446.199 140.445L426.632 84.3366H442.542L453.834 124.393H454.402L465.802 84.3366H481.817L460.617 144.777C459.599 147.713 458.214 150.269 456.462 152.447C454.734 154.649 452.544 156.342 449.892 157.526C447.241 158.733 444.045 159.337 440.304 159.337Z"
    class="letter"
  />
  <path
    d="M421.723 84.3366V95.7003H388.058V84.3366H421.723ZM395.764 138.882V80.3949C395.764 76.4413 396.534 73.1624 398.072 70.5582C399.635 67.9541 401.766 66.0009 404.465 64.6989C407.163 63.3968 410.229 62.7457 413.662 62.7457C415.982 62.7457 418.101 62.9233 420.018 63.2784C421.96 63.6335 423.404 63.9531 424.351 64.2372L421.652 75.6008C421.06 75.4115 420.326 75.2339 419.45 75.0682C418.598 74.9025 417.722 74.8196 416.822 74.8196C414.597 74.8196 413.046 75.3404 412.17 76.3821C411.295 77.4001 410.857 78.8324 410.857 80.679V138.882H395.764Z"
    class="letter"
  />
  <path
    d="M365.145 138.882V84.3367H380.272V138.882H365.145ZM372.744 77.3054C370.495 77.3054 368.565 76.5597 366.956 75.0682C365.369 73.553 364.576 71.742 364.576 69.6349C364.576 67.5516 365.369 65.7642 366.956 64.2727C368.565 62.7576 370.495 62 372.744 62C374.993 62 376.911 62.7576 378.497 64.2727C380.107 65.7642 380.912 67.5516 380.912 69.6349C380.912 71.742 380.107 73.553 378.497 75.0682C376.911 76.5597 374.993 77.3054 372.744 77.3054Z"
    class="letter"
  />
  <path
    d="M318.065 107.348V138.882H302.938V84.3367H317.355V93.9602H317.994C319.202 90.7879 321.226 88.2784 324.067 86.4318C326.908 84.5616 330.352 83.6264 334.401 83.6264C338.188 83.6264 341.491 84.455 344.308 86.1122C347.125 87.7694 349.315 90.1369 350.878 93.2145C352.44 96.2685 353.222 99.9143 353.222 104.152V138.882H338.094V106.851C338.117 103.513 337.265 100.909 335.537 99.0384C333.809 97.1444 331.429 96.1975 328.399 96.1975C326.363 96.1975 324.564 96.6354 323.001 97.5114C321.463 98.3873 320.255 99.6657 319.379 101.347C318.527 103.004 318.089 105.004 318.065 107.348Z"
    class="letter"
  />
  <path
    d="M262.02 138.882V84.3366H276.686V93.8537H277.254C278.248 90.4683 279.917 87.9114 282.261 86.1832C284.605 84.4313 287.304 83.5554 290.358 83.5554C291.115 83.5554 291.932 83.6027 292.808 83.6974C293.684 83.7921 294.453 83.9223 295.116 84.0881V97.5114C294.406 97.2983 293.423 97.1089 292.169 96.9432C290.914 96.7775 289.766 96.6946 288.724 96.6946C286.499 96.6946 284.51 97.1799 282.758 98.1506C281.03 99.0975 279.657 100.423 278.639 102.128C277.645 103.832 277.147 105.797 277.147 108.023V138.882H262.02Z"
    class="letter"
  />
  <path
    d="M219.566 139.912C216.086 139.912 212.984 139.308 210.262 138.101C207.539 136.87 205.385 135.059 203.799 132.668C202.236 130.253 201.455 127.246 201.455 123.648C201.455 120.617 202.011 118.072 203.124 116.013C204.237 113.953 205.752 112.296 207.669 111.041C209.587 109.786 211.765 108.84 214.203 108.2C216.666 107.561 219.246 107.111 221.945 106.851C225.117 106.519 227.674 106.212 229.615 105.928C231.557 105.62 232.965 105.17 233.841 104.578C234.717 103.986 235.155 103.11 235.155 101.95V101.737C235.155 99.4882 234.445 97.7481 233.024 96.5171C231.628 95.286 229.639 94.6705 227.059 94.6705C224.336 94.6705 222.17 95.2742 220.56 96.4815C218.95 97.6653 217.885 99.1567 217.364 100.956L203.373 99.8196C204.083 96.5052 205.48 93.6406 207.563 91.2259C209.646 88.7874 212.333 86.9171 215.624 85.6151C218.938 84.2893 222.774 83.6264 227.13 83.6264C230.16 83.6264 233.06 83.9815 235.83 84.6918C238.623 85.402 241.097 86.5029 243.252 87.9943C245.43 89.4858 247.146 91.4034 248.401 93.7472C249.656 96.0672 250.283 98.849 250.283 102.092V138.882H235.936V131.318H235.51C234.634 133.023 233.462 134.526 231.995 135.828C230.527 137.107 228.763 138.113 226.703 138.847C224.644 139.557 222.265 139.912 219.566 139.912ZM223.898 129.472C226.123 129.472 228.088 129.034 229.793 128.158C231.498 127.258 232.835 126.051 233.806 124.536C234.776 123.02 235.262 121.304 235.262 119.386V113.598C234.788 113.906 234.137 114.19 233.309 114.45C232.504 114.687 231.592 114.912 230.574 115.125C229.556 115.314 228.538 115.492 227.52 115.658C226.502 115.8 225.579 115.93 224.75 116.048C222.975 116.309 221.424 116.723 220.098 117.291C218.773 117.859 217.743 118.629 217.009 119.599C216.275 120.546 215.908 121.73 215.908 123.151C215.908 125.21 216.654 126.785 218.145 127.874C219.66 128.939 221.578 129.472 223.898 129.472Z"
    class="letter"
  />
  <path
    d="M169.104 139.947C163.493 139.947 158.664 138.811 154.615 136.538C150.591 134.242 147.489 130.999 145.311 126.808C143.133 122.594 142.044 117.611 142.044 111.858C142.044 106.247 143.133 101.323 145.311 97.0852C147.489 92.8476 150.555 89.545 154.509 87.1776C158.486 84.8101 163.15 83.6264 168.5 83.6264C172.099 83.6264 175.449 84.2065 178.55 85.3665C181.675 86.5029 184.398 88.2192 186.718 90.5156C189.061 92.812 190.884 95.7003 192.186 99.1804C193.489 102.637 194.14 106.685 194.14 111.325V115.48H148.081V106.105H179.9C179.9 103.927 179.426 101.998 178.479 100.317C177.532 98.6359 176.218 97.322 174.537 96.375C172.88 95.4044 170.951 94.919 168.749 94.919C166.453 94.919 164.417 95.4517 162.641 96.5171C160.889 97.5587 159.516 98.9673 158.522 100.743C157.527 102.495 157.018 104.448 156.995 106.602V115.516C156.995 118.215 157.492 120.546 158.486 122.511C159.504 124.476 160.936 125.991 162.783 127.057C164.63 128.122 166.819 128.655 169.353 128.655C171.033 128.655 172.572 128.418 173.969 127.945C175.366 127.471 176.561 126.761 177.556 125.814C178.55 124.867 179.308 123.707 179.828 122.334L193.82 123.257C193.11 126.619 191.654 129.554 189.452 132.064C187.274 134.55 184.457 136.491 181 137.888C177.568 139.261 173.602 139.947 169.104 139.947Z"
    class="letter"
  />
  <path d="M132 74V139H117V74H132Z" class="letter" />
</svg>
