<svg viewBox="0 0 24 24" xmlns="http://www.w3.org/2000/svg">
  <path
    fill-rule="evenodd"
    clip-rule="evenodd"
    d="M20.3098 3.3078C20.7124 3.7182 20.7124 4.38359 20.3098 4.79399L4.75975 20.6467C4.35718 21.0571 3.70449 21.0571 3.30192 20.6467C2.89936 20.2363 2.89936 19.5709 3.30192 19.1605L18.852 3.3078C19.2546 2.8974 19.9073 2.8974 20.3098 3.3078Z"
  />
  <path
    fill-rule="evenodd"
    clip-rule="evenodd"
    d="M20.6981 20.6922C20.2955 21.1026 19.6428 21.1026 19.2403 20.6922L3.69016 4.83952C3.2876 4.42912 3.2876 3.76373 3.69016 3.35333C4.09273 2.94293 4.74542 2.94293 5.14798 3.35333L20.6981 19.206C21.1006 19.6164 21.1006 20.2818 20.6981 20.6922Z"
  />
</svg>
