<svg width="120" height="120" viewBox="0 0 120 120" xmlns="http://www.w3.org/2000/svg" fill="none" xmlns:xlink="http://www.w3.org/1999/xlink">
  <defs>
    <linearGradient id="top" x1="0" y1="0" x2="1" y2="1">
      <stop offset="0%" stop-color="#ffe58f" />
      <!-- yellow-300 -->
      <stop offset="100%" stop-color="#ffc53d" />
      <!-- yellow-500 -->
    </linearGradient>
    <linearGradient id="right" x1="0" y1="0" x2="0.7" y2="1">
      <stop offset="0%" stop-color="#f76818" />
      <!-- orange-600 -->
      <stop offset="100%" stop-color="#c0390e" />
      <!-- orange-800 -->
    </linearGradient>
    <linearGradient id="left" x1="0" y1="0" x2="0.5" y2="1">
      <stop offset="0%" stop-color="#de2426" />
      <!-- red-700 -->
      <stop offset="100%" stop-color="#9a1a1b" />
      <!-- red-900 -->
    </linearGradient>
    <radialGradient id="shine" cx="50%" cy="30%" r="60%">
      <stop offset="0%" stop-color="white" stop-opacity="0.6" />
      <stop offset="100%" stop-color="white" stop-opacity="0" />
    </radialGradient>
  </defs>

  <!-- Фон -->
  <rect width="120" height="120" rx="24" fill="#fff6ed" />
  <!-- orange-100 -->

  <!-- Тень под плиткой -->
  <ellipse cx="60" cy="90" rx="28" ry="8" fill="rgba(0,0,0,0.15)" />

  <!-- Плитка -->
  <polygon points="60,20 90,35 60,50 30,35" fill="url(#top)" />
  <polygon points="60,50 90,35 90,65 60,80" fill="url(#right)" />
  <polygon points="60,50 30,35 30,65 60,80" fill="url(#left)" />

  <!-- Световой блик -->
  <polygon points="30,35 60,20 90,35 60,50" fill="url(#shine)" />

  <!-- Внутренняя мозаика -->
  <rect x="42" y="40" width="6" height="6" fill="#fff1b8" rx="1" />
  <rect x="52" y="42" width="6" height="6" fill="#fffbe6" rx="1" />
  <rect x="48" y="50" width="6" height="6" fill="#ffd666" rx="1" />
</svg>
