<svg width="107" height="89" viewBox="0 0 107 89" fill="none" xmlns="http://www.w3.org/2000/svg">
<path d="M53.5 88.4282C83.0472 88.4282 107 87.0297 107 85.3046C107 83.5796 83.0472 82.1811 53.5 82.1811C23.9528 82.1811 0 83.5796 0 85.3046C0 87.0297 23.9528 88.4282 53.5 88.4282Z" fill="#F0F0F0"/>
<path d="M37.0578 32.1284C36.9036 31.4593 36.5272 30.8623 35.9899 30.4348C35.4527 30.0073 34.7864 29.7746 34.0998 29.7747H12.0255C11.2205 29.7747 10.4484 30.0945 9.87923 30.6637C9.31002 31.2329 8.99023 32.0049 8.99023 32.8099V81.8757C8.99023 82.6807 9.31002 83.4527 9.87923 84.0219C10.4484 84.5912 11.2205 84.9109 12.0255 84.9109H82.1116C82.9166 84.9109 83.6886 84.5912 84.2578 84.0219C84.827 83.4527 85.1468 82.6807 85.1468 81.8757V40.6601C85.1468 39.8551 84.827 39.0831 84.2578 38.5139C83.6886 37.9447 82.9166 37.6249 82.1116 37.6249H43.9643C42.3611 37.6252 40.8051 37.0817 39.5507 36.0834C38.2962 35.085 37.4174 33.6908 37.0578 32.1284Z" fill="#FCB375"/>
<path opacity="0.6" d="M37.0578 32.1284C36.9036 31.4593 36.5272 30.8623 35.9899 30.4348C35.4527 30.0073 34.7864 29.7746 34.0998 29.7747H12.0255C11.2205 29.7747 10.4484 30.0945 9.87923 30.6637C9.31002 31.2329 8.99023 32.0049 8.99023 32.8099V81.8757C8.99023 82.6807 9.31002 83.4527 9.87923 84.0219C10.4484 84.5912 11.2205 84.9109 12.0255 84.9109H82.1116C82.9166 84.9109 83.6886 84.5912 84.2578 84.0219C84.827 83.4527 85.1468 82.6807 85.1468 81.8757V40.6601C85.1468 39.8551 84.827 39.0831 84.2578 38.5139C83.6886 37.9447 82.9166 37.6249 82.1116 37.6249H43.9643C42.3611 37.6252 40.8051 37.0817 39.5507 36.0834C38.2962 35.085 37.4174 33.6908 37.0578 32.1284Z" fill="#F76818"/>
<path opacity="0.22" d="M29.2656 16.848L31.233 23.2192C31.4842 24.0301 32.0469 24.7081 32.7976 25.1044C33.5482 25.5007 34.4255 25.5828 35.2367 25.3328L41.6052 23.3654L29.2656 16.848Z" fill="#FCB375"/>
<path d="M29.2653 16.848L6.50106 23.8814C6.0992 24.0049 5.72563 24.2063 5.40171 24.4743C5.07779 24.7423 4.80988 25.0715 4.61332 25.4431C4.41675 25.8147 4.29538 26.2214 4.25614 26.64C4.21691 27.0585 4.26059 27.4807 4.38468 27.8824L17.381 69.9561C17.505 70.3578 17.707 70.7312 17.9753 71.0548C18.2437 71.3785 18.5732 71.6461 18.945 71.8424C19.3168 72.0386 19.7236 72.1597 20.1422 72.1988C20.5608 72.2378 20.983 72.1939 21.3847 72.0698L50.5201 63.0689C50.9217 62.9452 51.295 62.7435 51.6186 62.4754C51.9422 62.2073 52.2098 61.8781 52.4061 61.5065C52.6024 61.1349 52.7236 60.7283 52.7626 60.3099C52.8017 59.8914 52.7579 59.4694 52.6337 59.068L41.5965 23.3654L29.2653 16.848Z" fill="#FCB375"/>
<path opacity="0.8" d="M29.2653 16.848L6.50106 23.8814C6.0992 24.0049 5.72563 24.2063 5.40171 24.4743C5.07779 24.7423 4.80988 25.0715 4.61332 25.4431C4.41675 25.8147 4.29538 26.2214 4.25614 26.64C4.21691 27.0585 4.26059 27.4807 4.38468 27.8824L17.381 69.9561C17.505 70.3578 17.707 70.7312 17.9753 71.0548C18.2437 71.3785 18.5732 71.6461 18.945 71.8424C19.3168 72.0386 19.7236 72.1597 20.1422 72.1988C20.5608 72.2378 20.983 72.1939 21.3847 72.0698L50.5201 63.0689C50.9217 62.9452 51.295 62.7435 51.6186 62.4754C51.9422 62.2073 52.2098 61.8781 52.4061 61.5065C52.6024 61.1349 52.7236 60.7283 52.7626 60.3099C52.8017 59.8914 52.7579 59.4694 52.6337 59.068L41.5965 23.3654L29.2653 16.848Z" fill="#FAFAFA"/>
<g opacity="0.28">
<path d="M41.5136 61.233L22.5738 67.0827C22.2196 67.1915 21.8368 67.1556 21.509 66.9829C21.1811 66.8102 20.935 66.5148 20.8244 66.1611C20.7166 65.8069 20.7533 65.4245 20.9265 65.0972C21.0997 64.77 21.3953 64.5245 21.7488 64.4145L40.6886 58.562C41.0432 58.4534 41.4264 58.4896 41.7542 58.6629C42.0821 58.8361 42.328 59.1322 42.438 59.4864C42.5458 59.8406 42.5092 60.2231 42.336 60.5503C42.1628 60.8776 41.8672 61.123 41.5136 61.233Z" fill="#FCB375"/>
</g>
<g opacity="0.28">
<path d="M21.1312 26.9011L11.1149 29.9942C10.7607 30.1023 10.3782 30.0661 10.0506 29.8935C9.72296 29.7209 9.47675 29.4259 9.36555 29.0726C9.25763 28.7181 9.29423 28.3352 9.46738 28.0075C9.64053 27.6798 9.93619 27.4339 10.2899 27.3232L20.3062 24.2301C20.6604 24.1205 21.0436 24.156 21.3716 24.3289C21.6996 24.5017 21.9456 24.7976 22.0555 25.1517C22.1635 25.5062 22.1269 25.8891 21.9537 26.2168C21.7806 26.5445 21.4849 26.7904 21.1312 26.9011Z" fill="#FCB375"/>
</g>
<g opacity="0.28">
<path d="M29.3039 30.1808L12.7481 35.2938C12.3947 35.4 12.0136 35.3625 11.6876 35.1894C11.3617 35.0163 11.1171 34.7217 11.007 34.3695C10.8983 34.0156 10.9342 33.6331 11.107 33.3058C11.2797 32.9784 11.5752 32.7328 11.9286 32.6228L28.4844 27.5098C28.8386 27.4011 29.2215 27.4369 29.5493 27.6096C29.8771 27.7823 30.1232 28.0778 30.2338 28.4314C30.3407 28.7867 30.303 29.1699 30.1289 29.4975C29.9547 29.8251 29.6582 30.0707 29.3039 30.1808Z" fill="#FCB375"/>
</g>
<g opacity="0.28">
<path d="M38.5482 33.1297L14.3878 40.5798C14.034 40.6885 13.6515 40.6525 13.3241 40.4798C12.9967 40.3071 12.7512 40.0116 12.6412 39.6582C12.5331 39.304 12.5694 38.9214 12.742 38.5938C12.9146 38.2662 13.2096 38.02 13.5628 37.9088L37.7232 30.4587C38.077 30.3507 38.4592 30.387 38.7864 30.5597C39.1135 30.7323 39.3592 31.0273 39.4698 31.3803C39.5786 31.7345 39.5427 32.1174 39.37 32.4452C39.1973 32.773 38.9019 33.0191 38.5482 33.1297Z" fill="#FCB375"/>
</g>
<g opacity="0.28">
<path d="M40.1845 38.428L26.1397 42.7683C25.7855 42.8762 25.403 42.8395 25.0758 42.6663C24.7485 42.4931 24.5031 42.1975 24.393 41.844C24.2851 41.4901 24.3214 41.108 24.494 40.7808C24.6667 40.4536 24.9616 40.2079 25.3146 40.0973L39.3595 35.757C39.714 35.6498 40.0965 35.6867 40.424 35.8598C40.7515 36.0328 40.9976 36.328 41.1089 36.6813C41.2167 37.0355 41.18 37.418 41.0068 37.7452C40.8336 38.0725 40.538 38.3179 40.1845 38.428Z" fill="#FCB375"/>
</g>
<g opacity="0.28">
<path d="M19.6984 44.7591L16.0258 45.8932C15.6716 46.002 15.2887 45.9661 14.9609 45.7934C14.6331 45.6207 14.387 45.3252 14.2764 44.9716C14.1677 44.617 14.204 44.2338 14.3772 43.9059C14.5505 43.5781 14.8466 43.3322 15.2007 43.2222L18.8734 42.0881C19.2276 41.9801 19.6101 42.0163 19.9377 42.1889C20.2654 42.3615 20.5116 42.6565 20.6228 43.0097C20.7299 43.3643 20.693 43.7468 20.5199 44.0743C20.3469 44.4018 20.0517 44.6478 19.6984 44.7591Z" fill="#FCB375"/>
</g>
<g opacity="0.28">
<path d="M41.8222 43.7304L17.6618 51.1943C17.3076 51.3021 16.9252 51.2654 16.5979 51.0922C16.2707 50.919 16.0252 50.6234 15.9152 50.2699C15.8065 49.9161 15.8425 49.5336 16.0152 49.2062C16.1879 48.8788 16.4834 48.6332 16.8368 48.5233L40.9972 41.0594C41.351 40.9514 41.7332 40.9877 42.0604 41.1603C42.3876 41.333 42.6332 41.628 42.7438 41.981C42.8526 42.3352 42.8168 42.718 42.6441 43.0459C42.4714 43.3737 42.1759 43.6198 41.8222 43.7304Z" fill="#FCB375"/>
</g>
<g opacity="0.28">
<path d="M34.1347 51.9075L19.298 56.4907C18.9441 56.5986 18.562 56.5623 18.2348 56.3897C17.9076 56.2171 17.6619 55.9221 17.5513 55.5691C17.4433 55.2149 17.4795 54.8323 17.6521 54.5047C17.8247 54.1771 18.1197 53.9309 18.4729 53.8197L33.3097 49.2365C33.6642 49.1286 34.0471 49.1652 34.3748 49.3383C34.7025 49.5115 34.9484 49.8071 35.0591 50.1609C35.1677 50.515 35.1313 50.8979 34.958 51.2253C34.7847 51.5527 34.4887 51.7981 34.1347 51.9075Z" fill="#FCB375"/>
</g>
<g opacity="0.28">
<path d="M43.4592 49.0283L39.4996 50.2507C39.1451 50.3586 38.7622 50.322 38.4345 50.1488C38.1068 49.9757 37.8609 49.68 37.7502 49.3263C37.6424 48.9721 37.6791 48.5896 37.8523 48.2624C38.0254 47.9352 38.3211 47.6897 38.6746 47.5797L42.6342 46.3573C42.988 46.2486 43.3705 46.2846 43.6979 46.4573C44.0253 46.63 44.2708 46.9255 44.3808 47.2789C44.4896 47.6331 44.4537 48.016 44.281 48.3438C44.1083 48.6716 43.8129 48.9177 43.4592 49.0283Z" fill="#FCB375"/>
</g>
<g opacity="0.28">
<path d="M45.0946 54.3338L20.9398 61.7839C20.5852 61.8926 20.202 61.8563 19.8741 61.6831C19.5462 61.5098 19.3004 61.2137 19.1904 60.8596C19.0818 60.5054 19.1181 60.1226 19.2914 59.7951C19.4647 59.4677 19.7608 59.2223 20.1147 59.1129L44.2724 51.649C44.6269 51.5419 45.0094 51.5788 45.3369 51.7519C45.6644 51.9249 45.9105 52.2201 46.0218 52.5734C46.0772 52.7498 46.0971 52.9355 46.0805 53.1197C46.0638 53.3039 46.0109 53.483 45.9247 53.6466C45.8385 53.8103 45.7208 53.9552 45.5783 54.0732C45.4359 54.1911 45.2715 54.2797 45.0946 54.3338Z" fill="#FCB375"/>
</g>
<path d="M45.6147 1.02553L52.8386 17.1233C53.0261 17.5435 53.0397 18.0209 52.8763 18.451C52.7129 18.8812 52.3858 19.2292 51.9666 19.419L21.3219 33.1741C20.9018 33.3624 20.4241 33.3763 19.9937 33.2129C19.5633 33.0494 19.2153 32.7219 19.0261 32.3022L11.7995 16.2044C11.6104 15.784 11.596 15.3056 11.7595 14.8746C11.923 14.4436 12.2511 14.0951 12.6715 13.9059L43.3162 0.150831C43.7372 -0.0366373 44.2152 -0.0498685 44.6459 0.114029C45.0766 0.277926 45.4249 0.605626 45.6147 1.02553Z" fill="#FCB375"/>
<path opacity="0.3" d="M45.6147 1.02553L52.8386 17.1233C53.0261 17.5435 53.0397 18.0209 52.8763 18.451C52.7129 18.8812 52.3858 19.2292 51.9666 19.419L21.3219 33.1741C20.9018 33.3624 20.4241 33.3763 19.9937 33.2129C19.5633 33.0494 19.2153 32.7219 19.0261 32.3022L11.7995 16.2044C11.6104 15.784 11.596 15.3056 11.7595 14.8746C11.923 14.4436 12.2511 14.0951 12.6715 13.9059L43.3162 0.150831C43.7372 -0.0366373 44.2152 -0.0498685 44.6459 0.114029C45.0766 0.277926 45.4249 0.605626 45.6147 1.02553Z" fill="#F76818"/>
<path d="M40.784 0.2307L39.8047 0.670013L39.9176 0.921773L40.897 0.482459L40.784 0.2307Z" fill="#FCB375"/>
<path d="M38.4328 1.28468L35.3789 2.65457L35.4918 2.90633L38.5457 1.53644L38.4328 1.28468Z" fill="#FCB375"/>
<path d="M11.7713 17.8277L11.5195 17.9407L12.3559 19.8035L12.6076 19.6904L11.7713 17.8277Z" fill="#FCB375"/>
<path opacity="0.6" d="M44.5885 0.0934925L36.6859 15.5731C35.9526 17.0079 34.7517 18.1495 33.2816 18.8093C31.8116 19.469 30.1605 19.6074 28.6011 19.2016L11.7832 14.8171C11.9557 14.4136 12.2725 14.0889 12.6717 13.9065L43.3164 0.151437C43.7179 -0.0280673 44.1724 -0.0487725 44.5885 0.0934925Z" fill="#FCB375"/>
<path d="M55.4507 19.9046L31.671 21.3725C31.2509 21.3975 30.8399 21.5051 30.4614 21.6891C30.0829 21.8731 29.7444 22.1299 29.4653 22.4449C29.1862 22.7599 28.972 23.1269 28.8348 23.5247C28.6977 23.9226 28.6404 24.3436 28.6662 24.7637L31.3786 68.7138C31.4039 69.1341 31.5119 69.5454 31.6964 69.9239C31.8809 70.3025 32.1383 70.6409 32.4538 70.9198C32.7694 71.1986 33.1369 71.4125 33.5352 71.5491C33.9336 71.6858 34.355 71.7424 34.7752 71.7159L65.2103 69.8368C65.6299 69.8115 66.0404 69.7036 66.4183 69.5194C66.7962 69.3352 67.134 69.0781 67.4124 68.7631C67.6908 68.4481 67.9042 68.0812 68.0406 67.6835C68.1769 67.2859 68.2334 66.8652 68.2069 66.4456L65.9167 29.1482L55.4507 19.9046Z" fill="#FCB375"/>
<path opacity="0.8" d="M55.4507 19.9046L31.671 21.3725C31.2509 21.3975 30.8399 21.5051 30.4614 21.6891C30.0829 21.8731 29.7444 22.1299 29.4653 22.4449C29.1862 22.7599 28.972 23.1269 28.8348 23.5247C28.6977 23.9226 28.6404 24.3436 28.6662 24.7637L31.3786 68.7138C31.4039 69.1341 31.5119 69.5454 31.6964 69.9239C31.8809 70.3025 32.1383 70.6409 32.4538 70.9198C32.7694 71.1986 33.1369 71.4125 33.5352 71.5491C33.9336 71.6858 34.355 71.7424 34.7752 71.7159L65.2103 69.8368C65.6299 69.8115 66.0404 69.7036 66.4183 69.5194C66.7962 69.3352 67.134 69.0781 67.4124 68.7631C67.6908 68.4481 67.9042 68.0812 68.0406 67.6835C68.1769 67.2859 68.2334 66.8652 68.2069 66.4456L65.9167 29.1482L55.4507 19.9046Z" fill="#FAFAFA"/>
<g opacity="0.22">
<path d="M56.8893 65.9209L37.1024 67.1432C36.7327 67.1644 36.3697 67.0384 36.0926 66.7929C35.8155 66.5473 35.6468 66.2021 35.6234 65.8326C35.6022 65.4631 35.7277 65.1002 35.9726 64.8227C36.2175 64.5452 36.562 64.3757 36.9313 64.3508L56.7182 63.1312C57.0879 63.1093 57.4512 63.2345 57.7288 63.4796C58.0064 63.7246 58.1758 64.0696 58.2 64.4391C58.2219 64.8092 58.0963 65.1729 57.8506 65.4506C57.605 65.7283 57.2593 65.8974 56.8893 65.9209Z" fill="#FCB375"/>
</g>
<g opacity="0.22">
<path d="M45.1786 27.7567L34.7126 28.3969C34.3431 28.4181 33.9802 28.2926 33.7027 28.0477C33.4252 27.8028 33.2557 27.4582 33.2308 27.089C33.2096 26.719 33.3355 26.3557 33.581 26.0782C33.8265 25.8007 34.1717 25.6314 34.5415 25.6072L45.0075 24.9616C45.3769 24.9397 45.7399 25.065 46.0171 25.3101C46.2943 25.5552 46.463 25.9002 46.4865 26.2695C46.5099 26.64 46.3854 27.0048 46.1401 27.2836C45.8949 27.5625 45.5491 27.7326 45.1786 27.7567Z" fill="#FCB375"/>
</g>
<g opacity="0.22">
<path d="M52.347 32.8721L35.0545 33.9372C34.6847 33.9599 34.3209 33.8349 34.0432 33.5897C33.7654 33.3445 33.5962 32.9991 33.5728 32.6293C33.5509 32.2592 33.6765 31.8955 33.9221 31.6178C34.1678 31.3401 34.5134 31.171 34.8834 31.1475L52.1732 30.0825C52.543 30.0598 52.9067 30.1848 53.1845 30.43C53.4623 30.6752 53.6315 31.0206 53.6549 31.3904C53.6768 31.76 53.5516 32.1233 53.3066 32.401C53.0615 32.6786 52.7165 32.848 52.347 32.8721Z" fill="#FCB375"/>
</g>
<g opacity="0.22">
<path d="M60.6325 37.9168L35.396 39.4731C35.0251 39.4958 34.6604 39.3706 34.3816 39.1249C34.1029 38.8793 33.9328 38.5332 33.9087 38.1624C33.8868 37.793 34.0121 37.43 34.2572 37.1528C34.5024 36.8756 34.8473 36.7069 35.2166 36.6834L60.4559 35.1244C60.8255 35.1033 61.1885 35.2292 61.4656 35.4748C61.7427 35.7204 61.9114 36.0656 61.9349 36.4351C61.9569 36.8039 61.8324 37.1664 61.5885 37.4439C61.3446 37.7213 61.001 37.8913 60.6325 37.9168Z" fill="#FCB375"/>
</g>
<g opacity="0.22">
<path d="M60.9759 43.4533L46.3047 44.3583C45.935 44.3803 45.5717 44.255 45.2941 44.01C45.0164 43.7649 44.8471 43.4199 44.8229 43.0504C44.8003 42.6806 44.9252 42.3169 45.1705 42.0391C45.4157 41.7613 45.761 41.5921 46.1308 41.5687L60.802 40.6636C61.1719 40.641 61.5356 40.7659 61.8134 41.0112C62.0912 41.2564 62.2603 41.6018 62.2838 41.9715C62.3057 42.3412 62.1804 42.7045 61.9354 42.9821C61.6903 43.2598 61.3454 43.4291 60.9759 43.4533Z" fill="#FCB375"/>
</g>
<g opacity="0.22">
<path d="M39.5735 44.7732L35.7354 45.0104C35.366 45.0324 35.003 44.907 34.7258 44.6619C34.4486 44.4168 34.2798 44.0718 34.2564 43.7025C34.2344 43.3329 34.3597 42.9696 34.6047 42.6919C34.8498 42.4143 35.1948 42.2449 35.5643 42.2208L39.4025 41.9835C39.7724 41.9623 40.1357 42.0882 40.4132 42.3337C40.6908 42.5792 40.8601 42.9244 40.8842 43.2942C40.9054 43.6638 40.7794 44.0268 40.5338 44.3039C40.2883 44.581 39.943 44.7497 39.5735 44.7732Z" fill="#FCB375"/>
</g>
<g opacity="0.22">
<path d="M61.3171 48.9894L36.0778 50.5456C35.7081 50.5676 35.3448 50.4423 35.0672 50.1973C34.7896 49.9522 34.6202 49.6073 34.596 49.2377C34.5749 48.8678 34.7007 48.5045 34.9462 48.227C35.1917 47.9494 35.537 47.7801 35.9067 47.756L61.1432 46.1997C61.5133 46.1778 61.8771 46.3035 62.1548 46.5491C62.4325 46.7947 62.6015 47.1404 62.625 47.5104C62.6469 47.8798 62.5216 48.2428 62.2764 48.52C62.0313 48.7972 61.6864 48.966 61.3171 48.9894Z" fill="#FCB375"/>
</g>
<g opacity="0.22">
<path d="M51.9185 55.1248L36.4196 56.0823C36.0497 56.1035 35.6863 55.9776 35.4088 55.7321C35.1313 55.4866 34.962 55.1414 34.9378 54.7716C34.9167 54.402 35.0426 54.039 35.2882 53.7619C35.5338 53.4848 35.879 53.3161 36.2485 53.2927L51.7475 52.3352C52.1171 52.314 52.4801 52.44 52.7572 52.6855C53.0343 52.9311 53.203 53.2763 53.2264 53.6458C53.2491 54.0154 53.124 54.3788 52.8788 54.6562C52.6335 54.9335 52.2881 55.1021 51.9185 55.1248Z" fill="#FCB375"/>
</g>
<g opacity="0.22">
<path d="M61.6577 54.527L57.5187 54.7809C57.1493 54.8028 56.7863 54.6775 56.5091 54.4324C56.2319 54.1872 56.0632 53.8423 56.0397 53.473C56.0171 53.1032 56.142 52.7394 56.3872 52.4616C56.6324 52.1838 56.9778 52.0147 57.3476 51.9913L61.4866 51.7374C61.8564 51.7147 62.2201 51.8397 62.4979 52.0849C62.7757 52.3301 62.9449 52.6755 62.9683 53.0453C62.9895 53.4152 62.8636 53.7785 62.6181 54.0561C62.3726 54.3336 62.0274 54.5029 61.6577 54.527Z" fill="#FCB375"/>
</g>
<g opacity="0.22">
<path d="M62 60.0613L36.7635 61.6176C36.3938 61.6395 36.0305 61.5143 35.7529 61.2692C35.4753 61.0242 35.3059 60.6792 35.2818 60.3097C35.2598 59.94 35.3851 59.5767 35.6301 59.2991C35.8752 59.0214 36.2201 58.8521 36.5897 58.8279L61.8289 57.2717C62.1983 57.2498 62.5613 57.3751 62.8385 57.6202C63.1157 57.8653 63.2845 58.2103 63.3079 58.5796C63.3306 58.9494 63.2056 59.3132 62.9604 59.5909C62.7152 59.8687 62.3698 60.0379 62 60.0613Z" fill="#FCB375"/>
</g>
<path opacity="0.22" d="M55.4512 19.9046L55.8623 26.56C55.888 26.9796 55.9961 27.3901 56.1804 27.7679C56.3647 28.1458 56.6217 28.4836 56.9366 28.7622C57.2515 29.0407 57.6182 29.2544 58.0157 29.3912C58.4133 29.528 58.8339 29.5851 59.2535 29.5594L65.9172 29.1482L55.4512 19.9046Z" fill="#FCB375"/>
<path opacity="0.5" d="M47.6644 36.5078C47.6602 36.1889 47.5922 35.874 47.4643 35.5818C47.3364 35.2896 47.1512 35.0261 46.9197 34.8066C46.6882 34.5872 46.4151 34.4164 46.1164 34.3044C45.8178 34.1923 45.4997 34.1412 45.181 34.1542H23.0791C21.4042 34.1542 19.7679 35.5145 19.4534 37.1894L10.7312 81.8762C10.4056 83.5511 11.4983 84.9114 13.1732 84.9114H83.2593C84.9342 84.9114 86.5567 83.5538 86.885 81.8762L94.0785 45.0396C94.4041 43.3619 93.3114 42.0044 91.6366 42.0044H53.5003C50.1892 42.0044 47.7775 39.7252 47.6644 36.5078Z" fill="#FCB375"/>
</svg>
