<svg width="24" height="24" viewBox="0 0 24 24" fill="none" xmlns="http://www.w3.org/2000/svg">
  <g clip-path="url(#clip0_881_6545)">
    <path
      fill-rule="evenodd"
      clip-rule="evenodd"
      d="M11.0765 0.244799C10.3735 0.286653 9.71283 0.386802 9.05307 0.551493C8.78304 0.618918 8.16219 0.806113 8.04832 0.854481C8.01763 0.867504 7.92341 0.904794 7.83899 0.937306C5.52675 1.82814 3.61664 3.51228 2.46577 5.67496C2.06789 6.42266 1.82022 7.0666 1.59317 7.94383L1.48954 8.34419L1.36133 8.37447C0.788619 8.50969 0.3062 8.96541 0.108152 9.55829C0.00455144 9.86842 -0.00848234 10.2008 0.00382582 12.2146C0.0160503 14.208 0.0150176 14.1893 0.131094 14.5423C0.181303 14.695 0.333552 14.9428 0.485267 15.1187C0.676171 15.3401 0.974245 15.5311 1.28089 15.6287C1.48695 15.6943 1.55884 15.7038 1.83841 15.7028C2.35443 15.7008 2.75173 15.5534 3.12021 15.2271C3.22568 15.1338 3.31781 15.0573 3.32496 15.0573C3.33211 15.0573 3.36008 15.1144 3.38712 15.1841C3.49104 15.452 3.88083 16.18 4.09576 16.5076C4.51272 17.1431 4.83555 17.5293 5.39421 18.0609C6.13648 18.7672 6.88056 19.2737 7.82251 19.7136L8.09909 19.8428L8.15717 19.7665C8.18912 19.7246 8.23736 19.6722 8.26437 19.6501C8.29136 19.6279 8.31344 19.6035 8.31341 19.5958C8.31339 19.588 8.18405 19.4556 8.026 19.3014C7.4192 18.7096 6.87085 17.9593 6.43232 17.1208C6.34637 16.9565 6.27605 16.8152 6.27605 16.8069C6.27605 16.7986 6.25152 16.7408 6.22155 16.6786C5.97565 16.1683 5.75915 15.4222 5.65981 14.7431C5.6252 14.5064 5.65176 14.2343 5.73853 13.9362C5.88163 13.4448 6.25885 12.9515 6.70523 12.6722C7.08821 12.4325 7.08693 12.4328 8.92747 12.0955C9.33427 12.021 9.71731 11.9483 9.77872 11.934C9.84013 11.9197 10.0599 11.8771 10.2671 11.8395C10.4744 11.8018 10.7381 11.7529 10.8533 11.7308C11.1062 11.6822 11.6316 11.5863 12.2348 11.4787C12.9007 11.3598 13.2478 11.2391 13.6389 10.9899C14.1154 10.6864 14.5806 10.0969 14.7734 9.55236C14.8447 9.35079 14.9492 8.91159 14.9868 8.6554C15.0174 8.44647 15.0343 8.39784 15.0911 8.35512C15.1723 8.29402 15.2337 8.29065 15.3065 8.34335C15.3363 8.36493 15.3795 8.38315 15.4025 8.38387C15.4868 8.3865 16.1118 9.36532 16.4936 10.0925C17.0154 11.0864 17.3599 12.0435 17.5075 12.9086C17.5871 13.3756 17.6633 14.357 17.6631 14.9144C17.6626 16.6891 17.1702 17.8982 15.9881 19.0269C15.6571 19.343 15.6118 19.4262 15.727 19.5079C15.8038 19.5624 15.8889 19.5361 16.184 19.367C16.858 18.9808 17.361 18.6033 17.9423 18.0471C18.9008 17.13 19.5639 16.1429 20.0225 14.9506C20.0818 14.7964 20.1348 14.6646 20.1404 14.6576C20.146 14.6506 20.2117 14.7115 20.2863 14.7929C20.5324 15.0613 20.8654 15.2684 21.2087 15.3667C21.3202 15.3987 21.375 15.4282 21.3747 15.4561C21.3743 15.4919 21.3305 15.6576 21.2365 15.9782C21.0136 16.7392 20.4707 17.726 19.9004 18.4072C19.4749 18.9154 18.7889 19.5272 18.2146 19.9108C17.6939 20.2586 16.9514 20.6437 16.4073 20.848C16.2461 20.9085 16.0891 20.9689 16.0584 20.9821C15.9944 21.0098 15.6686 21.1141 15.4025 21.1921C15.0853 21.2851 14.424 21.4313 14.0489 21.4914C13.6071 21.5622 13.0843 21.6218 13.045 21.6058C13.0292 21.5993 12.9861 21.5327 12.9491 21.4578C12.8637 21.2843 12.5515 20.9697 12.3488 20.8529C12.0431 20.6766 11.8546 20.6271 11.4812 20.6248C11.275 20.6235 11.0927 20.6369 11.0067 20.6597C10.2693 20.855 9.73784 21.4992 9.73784 22.1976C9.73784 22.7812 10.1288 23.3671 10.6858 23.6182C11.006 23.7626 11.1731 23.7947 11.5254 23.7798C12.1735 23.7523 12.7152 23.4149 12.9822 22.8723C13.0815 22.6704 13.0138 22.6986 13.5465 22.6376C15.0246 22.4682 16.3247 22.1037 17.5623 21.5116C17.7755 21.4096 17.9981 21.297 18.0571 21.2614C18.1162 21.2257 18.1716 21.1966 18.1803 21.1966C18.21 21.1966 18.8207 20.8071 19.0962 20.6125C19.6196 20.2427 20.134 19.7862 20.5482 19.3239C20.9234 18.9052 20.9619 18.857 21.2342 18.4669C21.7311 17.7553 22.1555 16.8635 22.3804 16.0583C22.4385 15.8506 22.5474 15.3888 22.5474 15.3505C22.5474 15.34 22.6493 15.2748 22.7739 15.2056C23.1961 14.971 23.5287 14.5791 23.6867 14.1303L23.7597 13.9229L23.7687 11.8143C23.7789 9.42225 23.7818 9.46287 23.5673 9.0382C23.2696 8.44872 22.6687 8.0494 21.9914 7.99086L21.7562 7.97051L21.6114 7.49005C21.5318 7.22579 21.4449 6.95554 21.4185 6.88946C21.3052 6.60675 21.2837 6.553 21.2635 6.50242C21.1716 6.27169 20.7999 5.52619 20.6571 5.28616C19.3793 3.13872 17.3048 1.49502 14.9118 0.733776C14.0422 0.457163 13.354 0.328373 12.3604 0.256276C11.7767 0.213942 11.6189 0.212528 11.0765 0.244799ZM12.6403 1.91179C14.6371 2.14417 16.37 2.94991 17.7749 4.29912C18.2934 4.79712 18.7086 5.30416 19.0917 5.90727C19.2479 6.1533 19.5807 6.78565 19.6717 7.00959C19.7074 7.09767 19.753 7.20578 19.7729 7.24982C19.8754 7.4767 20.0678 8.10979 20.1761 8.57697C20.2103 8.7247 20.2091 8.73312 20.1375 8.83665C20.0968 8.89548 20.0634 8.95691 20.0634 8.97312C20.0634 9.05242 19.9888 8.96191 19.9176 8.79631C19.7551 8.41793 19.3883 7.74573 19.1505 7.39027C17.6018 5.07534 14.9846 3.6129 12.146 3.47625C11.2362 3.43247 10.3975 3.50487 9.55544 3.69991C7.34149 4.21267 5.35728 5.58726 4.12704 7.46038C3.86336 7.86182 3.37344 8.80096 3.37344 8.90493C3.37344 8.98247 3.30776 8.9745 3.21488 8.88565L3.11816 8.79317L3.16133 8.59323C3.21533 8.3432 3.36331 7.79212 3.41459 7.65021C3.78803 6.61619 4.26376 5.77142 4.91272 4.98999C5.31749 4.50258 5.92845 3.93284 6.49933 3.51039C6.68979 3.36945 7.19861 3.05051 7.45248 2.91292C7.65275 2.80436 8.25419 2.52404 8.34136 2.49862C8.37976 2.48741 8.46139 2.45613 8.52277 2.42912C8.99501 2.22118 9.98653 1.98832 10.7695 1.90141C11.1333 1.86105 12.2578 1.8673 12.6403 1.91179Z"
      fill="#141414"
    />
  </g>
  <defs>
    <clipPath id="clip0_881_6545">
      <rect width="24" height="24" fill="white" />
    </clipPath>
  </defs>
</svg>
