<svg
  class="clear"
  width="234"
  height="209"
  viewBox="0 0 234 209"
  fill="none"
  xmlns="http://www.w3.org/2000/svg"
>
  <path
    d="M117.436 207.036V154.604L118.529 153.51H129.452L130.545 154.604V207.036L129.452 208.13H118.529L117.436 207.036Z"
    fill="#f76818"
  />
  <path
    d="M117.436 53.5225V1.09339L118.529 0H129.452L130.545 1.09339V53.5225L129.452 54.6159H118.529L117.436 53.5225Z"
    fill="#fcb375"
  />
  <path
    d="M69.9539 169.238H68.4094L60.6869 161.512V159.967L78.7201 141.938L86.8976 141.942L87.9948 143.031V151.209L69.9539 169.238Z"
    fill="#f9883e"
  />
  <path
    d="M69.9462 38.8917H68.4017L60.6792 46.6181V48.1626L78.7124 66.192L86.8899 66.1882L87.9871 65.0986V56.9212L69.9462 38.8917Z"
    fill="#fdd3ab"
  />
  <path
    d="M1.09339 97.5104H75.3711L76.4645 98.6038V109.526L75.3711 110.62H1.09339L0 109.526V98.6038L1.09339 97.5104Z"
    fill="#fcb375"
  />
  <path
    d="M118.186 98H130.814L131 99.0843V109.915L130.814 111H118.186L118 109.915V99.0843L118.186 98Z"
    fill="#ffffff"
  />
  <path
    d="M162.46 98H232.371L233.465 99.0934V110.016L232.371 111.11H158.094L157 110.016L161.366 99.0934L162.46 98Z"
    fill="#f76818"
  />
</svg>
