<?xml version="1.0" encoding="UTF-8"?>
<!DOCTYPE svg PUBLIC "-//W3C//DTD SVG 1.1//EN" "http://www.w3.org/Graphics/SVG/1.1/DTD/svg11.dtd">
<svg
  xmlns="http://www.w3.org/2000/svg"
  version="1.1"
  width="1024px"
  height="1024px"
  style="
    shape-rendering: geometricPrecision;
    text-rendering: geometricPrecision;
    image-rendering: optimizeQuality;
    fill-rule: evenodd;
    clip-rule: evenodd;
  "
  xmlns:xlink="http://www.w3.org/1999/xlink"
>
  <g>
    <path
      style="opacity: 1"
      fill="#fbfaf8"
      d="M -0.5,-0.5 C 340.833,-0.5 682.167,-0.5 1023.5,-0.5C 1023.5,340.833 1023.5,682.167 1023.5,1023.5C 682.167,1023.5 340.833,1023.5 -0.5,1023.5C -0.5,682.167 -0.5,340.833 -0.5,-0.5 Z"
    />
  </g>
  <g>
    <path
      style="opacity: 1"
      fill="#052641"
      d="M 577.5,192.5 C 555.195,206.656 532.862,220.823 510.5,235C 503.437,240.321 498.771,247.155 496.5,255.5C 495.501,296.33 495.168,337.33 495.5,378.5C 458.33,378.168 421.33,378.502 384.5,379.5C 379.957,378.231 375.624,376.397 371.5,374C 335.336,350.417 299.003,327.084 262.5,304C 260.972,301.119 261.638,298.786 264.5,297C 306.571,270.641 348.238,243.808 389.5,216.5C 422.946,195.605 456.279,174.438 489.5,153C 500.719,144.675 512.719,143.341 525.5,149C 545.5,161.667 565.5,174.333 585.5,187C 582.953,189.054 580.286,190.887 577.5,192.5 Z"
    />
  </g>
  <g>
    <path
      style="opacity: 1"
      fill="#fe641e"
      d="M 761.5,301.5 C 758.94,304.458 755.94,306.958 752.5,309C 677.348,357.329 602.348,405.829 527.5,454.5C 526.337,389.904 526.171,325.237 527,260.5C 530.587,258.153 533.754,255.487 536.5,252.5C 550.464,243.514 564.464,234.514 578.5,225.5C 588.617,219.223 598.617,212.723 608.5,206C 611.03,204.578 613.697,204.245 616.5,205C 664.411,236.54 712.578,267.707 761,298.5C 761.483,299.448 761.649,300.448 761.5,301.5 Z"
    />
  </g>
  <g>
    <path
      style="opacity: 1"
      fill="#052642"
      d="M 257.5,335.5 C 292.115,356.812 326.449,378.646 360.5,401C 367.671,405.603 375.337,408.437 383.5,409.5C 418.802,410.501 456.136,410.834 495.5,410.5C 495.48,432.473 495.48,454.139 495.5,475.5C 415.716,528.899 335.383,581.566 254.5,633.5C 253.169,533.902 253.169,434.235 254.5,334.5C 255.417,335.127 256.417,335.461 257.5,335.5 Z"
    />
  </g>
  <g>
    <path
      style="opacity: 1"
      fill="#052642"
      d="M 769.5,636.5 C 768.833,636.167 768.167,635.833 767.5,635.5C 729.209,609.68 690.209,584.847 650.5,561C 648.122,560.489 645.788,559.822 643.5,559C 603.998,558.833 564.665,558.333 525.5,557.5C 563.168,557.667 600.835,557.5 638.5,557C 601.168,556.5 563.835,556.333 526.5,556.5C 526.178,533.758 526.511,511.092 527.5,488.5C 603.982,438.089 680.982,388.422 758.5,339.5C 762.189,337.903 765.689,335.903 769,333.5C 769.5,434.499 769.667,535.499 769.5,636.5 Z"
    />
  </g>
  <g>
    <path
      style="opacity: 1"
      fill="#fe3100"
      d="M 536.5,252.5 C 533.754,255.487 530.587,258.153 527,260.5C 526.171,325.237 526.337,389.904 527.5,454.5C 526.883,454.611 526.383,454.944 526,455.5C 525.333,390.167 525.333,324.833 526,259.5C 529.271,256.784 532.771,254.451 536.5,252.5 Z"
    />
  </g>
  <g>
    <path
      style="opacity: 1"
      fill="#00010b"
      d="M 256.5,333.5 C 256.833,334.167 257.167,334.833 257.5,335.5C 256.417,335.461 255.417,335.127 254.5,334.5C 253.169,434.235 253.169,533.902 254.5,633.5C 253.833,633.833 253.167,634.167 252.5,634.5C 252.333,533.499 252.5,432.499 253,331.5C 253.816,332.823 254.983,333.489 256.5,333.5 Z"
    />
  </g>
  <g>
    <path
      style="opacity: 1"
      fill="#000006"
      d="M 383.5,409.5 C 421.167,409.5 458.833,409.5 496.5,409.5C 496.831,431.673 496.497,453.673 495.5,475.5C 495.48,454.139 495.48,432.473 495.5,410.5C 456.136,410.834 418.802,410.501 383.5,409.5 Z"
    />
  </g>
  <g>
    <path
      style="opacity: 1"
      fill="#052641"
      d="M 493.5,511.5 C 493.81,512.738 494.31,512.738 495,511.5C 495.167,576.668 495.667,641.668 496.5,706.5C 495.253,711.259 492.587,715.092 488.5,718C 461.077,735.46 433.91,753.294 407,771.5C 376.395,750.784 345.562,730.45 314.5,710.5C 298.071,699.109 281.405,687.942 264.5,677C 259.549,673.446 258.382,668.946 261,663.5C 267.714,658.612 274.547,653.946 281.5,649.5C 352.167,603.5 422.833,557.5 493.5,511.5 Z"
    />
  </g>
  <g>
    <path
      style="opacity: 1"
      fill="#f9f9f7"
      d="M 389.5,216.5 C 348.238,243.808 306.571,270.641 264.5,297C 261.638,298.786 260.972,301.119 262.5,304C 299.003,327.084 335.336,350.417 371.5,374C 375.624,376.397 379.957,378.231 384.5,379.5C 421.803,380.481 459.136,380.815 496.5,380.5C 496.5,338.833 496.5,297.167 496.5,255.5C 498.771,247.155 503.437,240.321 510.5,235C 532.862,220.823 555.195,206.656 577.5,192.5C 579.435,192.205 581.435,192.705 583.5,194C 581.422,195.486 580.089,197.486 579.5,200C 581.991,200.626 581.991,201.459 579.5,202.5C 581.674,204.24 581.007,205.24 577.5,205.5C 574.898,203.764 574.064,204.431 575,207.5C 576.699,206.594 578.533,206.261 580.5,206.5C 580.528,208.582 579.861,210.416 578.5,212C 578.833,212.333 579.167,212.667 579.5,213C 577.109,214.035 574.776,214.202 572.5,213.5C 570.889,214.32 570.222,215.654 570.5,217.5C 573.999,217.259 574.332,218.092 571.5,220C 572.536,221.617 573.703,221.784 575,220.5C 576.387,222.047 577.553,223.713 578.5,225.5C 564.464,234.514 550.464,243.514 536.5,252.5C 532.771,254.451 529.271,256.784 526,259.5C 525.333,324.833 525.333,390.167 526,455.5C 526.383,454.944 526.883,454.611 527.5,454.5C 602.348,405.829 677.348,357.329 752.5,309C 755.94,306.958 758.94,304.458 761.5,301.5C 763.606,302.566 765.106,304.233 766,306.5C 767,305.167 768,305.167 769,306.5C 769.851,303.388 771.017,303.054 772.5,305.5C 771.145,306.675 771.312,307.675 773,308.5C 773.333,307.833 773.667,307.167 774,306.5C 776.57,310.452 775.736,313.285 771.5,315C 772.624,315.249 773.624,315.749 774.5,316.5C 774.468,318.489 773.635,320.489 772,322.5C 771.25,321.874 770.416,321.374 769.5,321C 770.925,319.638 771.758,318.138 772,316.5C 771.667,316.833 771.333,317.167 771,317.5C 770.374,313.864 769.207,313.864 767.5,317.5C 768.025,318.192 768.692,318.692 769.5,319C 766.936,321.276 767.27,323.276 770.5,325C 768.665,325.928 768.332,327.094 769.5,328.5C 768.687,329.814 767.687,330.981 766.5,332C 766.728,332.399 767.062,332.565 767.5,332.5C 764.319,334.592 761.319,336.925 758.5,339.5C 680.982,388.422 603.982,438.089 527.5,488.5C 525.51,511.142 524.844,534.142 525.5,557.5C 564.665,558.333 603.998,558.833 643.5,559C 645.788,559.822 648.122,560.489 650.5,561C 690.209,584.847 729.209,609.68 767.5,635.5C 766.554,636.931 765.388,638.264 764,639.5C 762.632,638.007 762.465,636.507 763.5,635C 760.245,631.914 756.578,629.414 752.5,627.5C 751.571,628.689 751.238,630.022 751.5,631.5C 750.325,631.281 749.325,631.614 748.5,632.5C 749.239,635.067 749.239,637.4 748.5,639.5C 749.418,641.839 751.084,643.339 753.5,644C 751.557,645.193 751.724,646.693 754,648.5C 753.775,645.175 755.108,642.842 758,641.5C 758.925,642.047 759.758,642.713 760.5,643.5C 755.369,644.849 754.702,647.016 758.5,650C 757.429,651.825 758.096,652.992 760.5,653.5C 763.079,653.612 765.746,653.446 768.5,653C 767.809,654.067 767.309,655.234 767,656.5C 765.23,654.582 763.063,654.082 760.5,655C 761.833,656 763.167,657 764.5,658C 763.075,659.714 763.408,661.047 765.5,662C 763.771,663.789 763.104,665.956 763.5,668.5C 760.642,664.48 756.975,661.314 752.5,659C 718.663,637.583 684.997,615.916 651.5,594C 646.505,590.947 641.172,588.781 635.5,587.5C 598.864,586.519 562.197,586.186 525.5,586.5C 525.5,628.5 525.5,670.5 525.5,712.5C 523.346,722.856 518.013,731.356 509.5,738C 487.138,752.51 464.805,767.01 442.5,781.5C 443.028,780.153 443.195,778.819 443,777.5C 441.829,778.893 440.329,779.727 438.5,780C 439.622,781.613 439.122,782.78 437,783.5C 436.667,782.5 436.333,781.5 436,780.5C 435.107,781.711 434.274,781.711 433.5,780.5C 434.689,779.571 436.022,779.238 437.5,779.5C 437.343,778.127 437.51,776.793 438,775.5C 438.893,776.711 439.726,776.711 440.5,775.5C 438.653,774.17 437.153,774.503 436,776.5C 435.667,776.167 435.333,775.833 435,775.5C 434.544,776.744 435.044,777.577 436.5,778C 435.552,778.483 434.552,778.649 433.5,778.5C 433.719,777.325 433.386,776.325 432.5,775.5C 431.5,776.833 430.5,776.833 429.5,775.5C 428.396,776.631 428.729,777.465 430.5,778C 430,778.5 429.5,779 429,779.5C 427.333,778.833 425.667,778.167 424,777.5C 423.833,777.833 423.667,778.167 423.5,778.5C 424.729,779.281 426.062,779.781 427.5,780C 426.552,780.483 425.552,780.649 424.5,780.5C 424.703,782.39 424.037,783.89 422.5,785C 422.957,785.414 423.291,785.914 423.5,786.5C 422.469,787.7 421.635,789.034 421,790.5C 420.333,789.167 419.667,787.833 419,786.5C 418.549,788.929 417.715,789.096 416.5,787C 417.711,786.107 417.711,785.274 416.5,784.5C 415.549,785.326 414.549,785.492 413.5,785C 414.451,784.282 414.617,783.449 414,782.5C 413.077,783.759 412.243,785.092 411.5,786.5C 411.306,784.958 410.139,783.625 408,782.5C 407.667,783.167 407.333,783.833 407,784.5C 404.595,783.726 402.095,783.226 399.5,783C 398.149,779.805 395.815,777.972 392.5,777.5C 392.799,774.358 394.466,772.191 397.5,771C 396.207,770.51 394.873,770.343 393.5,770.5C 393.5,769.5 393.5,768.5 393.5,767.5C 391.023,767.051 389.023,767.717 387.5,769.5C 388.025,770.192 388.692,770.692 389.5,771C 387.379,772.77 385.046,773.77 382.5,774C 383.167,772.333 383.833,770.667 384.5,769C 383.5,768.333 382.5,768.333 381.5,769C 381.5,770.333 381.5,771.667 381.5,773C 379.109,773.691 379.109,774.691 381.5,776C 380.874,776.75 380.374,777.584 380,778.5C 379.326,776.483 378.159,774.817 376.5,773.5C 377.167,772.833 377.833,772.167 378.5,771.5C 377.833,771.167 377.167,770.833 376.5,770.5C 377.167,769.5 377.833,768.5 378.5,767.5C 376.993,766.261 375.826,766.595 375,768.5C 374.549,766.071 373.715,765.904 372.5,768C 373.167,770 373.833,772 374.5,774C 373.068,774.27 372.068,773.604 371.5,772C 372.815,770.605 372.481,769.605 370.5,769C 371.604,767.869 371.271,767.035 369.5,766.5C 369.089,767.262 368.923,768.262 369,769.5C 366.942,768.891 366.109,767.891 366.5,766.5C 364.843,767.732 363.176,768.566 361.5,769C 361.353,767.026 361.019,765.026 360.5,763C 361.167,762.667 361.833,762.333 362.5,762C 361,760.885 359.333,760.052 357.5,759.5C 356.202,756.243 354.369,756.243 352,759.5C 351.342,757.892 351.842,756.725 353.5,756C 352.892,755.13 352.059,754.63 351,754.5C 348.914,757.361 346.747,757.694 344.5,755.5C 346.254,752.775 347.587,750.275 348.5,748C 347.451,747.508 346.451,747.674 345.5,748.5C 344.017,746.054 342.851,746.388 342,749.5C 338.963,747.647 339.13,745.814 342.5,744C 340.192,742.133 337.525,741.133 334.5,741C 335.851,739.383 337.518,738.216 339.5,737.5C 339.333,737.167 339.167,736.833 339,736.5C 337.833,736.667 336.667,736.833 335.5,737C 335.167,736.667 334.833,736.333 334.5,736C 335.471,734.796 336.471,734.296 337.5,734.5C 335.86,732.417 333.86,732.084 331.5,733.5C 330.877,728.569 328.21,725.236 323.5,723.5C 322.201,724.09 321.368,725.09 321,726.5C 321.602,723.462 320.769,720.628 318.5,718C 319.5,717.667 320.5,717.333 321.5,717C 319.024,716.32 317.191,717.153 316,719.5C 315.5,719 315,718.5 314.5,718C 315.136,715.606 315.136,713.106 314.5,710.5C 345.562,730.45 376.395,750.784 407,771.5C 433.91,753.294 461.077,735.46 488.5,718C 492.587,715.092 495.253,711.259 496.5,706.5C 496.667,640.832 496.5,575.166 496,509.5C 495.005,510.066 494.172,510.733 493.5,511.5C 422.833,557.5 352.167,603.5 281.5,649.5C 280.912,647.795 280.579,646.128 280.5,644.5C 277.826,643.483 275.16,643.316 272.5,644C 273.548,641.8 275.048,641.3 277,642.5C 279.705,640.224 282.538,638.057 285.5,636C 284.874,635.25 284.374,634.416 284,633.5C 283.363,635.303 282.197,636.636 280.5,637.5C 277.317,638.555 274.483,639.888 272,641.5C 270.333,641.167 268.667,640.833 267,640.5C 266.195,642.901 265.362,642.734 264.5,640C 265.854,638.706 267.188,638.54 268.5,639.5C 269.517,636.972 270.684,636.972 272,639.5C 272.507,638.004 272.007,636.837 270.5,636C 271.624,635.751 272.624,635.251 273.5,634.5C 273.154,633.304 272.654,633.304 272,634.5C 270.423,632.002 270.423,630.002 272,628.5C 272.945,628.905 273.612,629.572 274,630.5C 275.113,629.24 275.28,628.073 274.5,627C 276.567,626.464 278.401,626.964 280,628.5C 282.082,626.348 281.916,625.681 279.5,626.5C 276.254,623.936 273.254,624.269 270.5,627.5C 268.53,626.557 267.03,627.224 266,629.5C 264.442,628.655 263.442,629.321 263,631.5C 262.086,630.346 261.253,630.513 260.5,632C 261.167,632.333 261.833,632.667 262.5,633C 259.411,633.148 256.578,633.981 254,635.5C 253.235,635.43 252.735,635.097 252.5,634.5C 253.167,634.167 253.833,633.833 254.5,633.5C 335.383,581.566 415.716,528.899 495.5,475.5C 496.497,453.673 496.831,431.673 496.5,409.5C 458.833,409.5 421.167,409.5 383.5,409.5C 375.337,408.437 367.671,405.603 360.5,401C 326.449,378.646 292.115,356.812 257.5,335.5C 257.167,334.833 256.833,334.167 256.5,333.5C 255.398,331.203 253.064,329.703 249.5,329C 249.833,328.667 250.167,328.333 250.5,328C 248.919,327.293 247.419,326.46 246,325.5C 245.692,326.308 245.192,326.975 244.5,327.5C 239.839,326.004 236.672,323.004 235,318.5C 234.085,319.328 233.419,320.328 233,321.5C 230.557,317.994 231.391,315.661 235.5,314.5C 234.385,313.402 234.385,312.235 235.5,311C 235.333,310.5 235.167,310 235,309.5C 233.287,309.38 231.454,309.547 229.5,310C 230.893,308.829 231.727,307.329 232,305.5C 232.914,306.654 233.747,306.487 234.5,305C 233.333,304.5 232.5,303.667 232,302.5C 231.667,303.167 231.333,303.833 231,304.5C 230,303.167 229,303.167 228,304.5C 227.683,302.699 227.016,302.366 226,303.5C 225.097,302.299 223.931,301.465 222.5,301C 223.833,300 223.833,299 222.5,298C 222.833,297.833 223.167,297.667 223.5,297.5C 224.243,298.908 225.077,300.241 226,301.5C 227.695,299.207 228.362,296.873 228,294.5C 228.833,295.5 229.667,296.5 230.5,297.5C 231.768,296.572 233.101,296.405 234.5,297C 233.664,298.243 233.997,299.41 235.5,300.5C 237.003,299.41 237.336,298.243 236.5,297C 237.5,296.333 238.5,296.333 239.5,297C 240.217,298.652 240.55,300.152 240.5,301.5C 241.631,299.926 241.798,298.259 241,296.5C 237.684,293.634 237.851,291.134 241.5,289C 241,288.5 240.5,288 240,287.5C 238.506,288.747 237.006,288.747 235.5,287.5C 237.205,285.697 239.038,285.031 241,285.5C 244.081,280.059 246.081,280.393 247,286.5C 247.124,284.574 247.958,282.741 249.5,281C 248.529,279.796 247.529,279.296 246.5,279.5C 247.82,277.73 249.32,277.397 251,278.5C 251.324,276.431 252.158,276.098 253.5,277.5C 254.364,275.803 255.697,274.637 257.5,274C 256.692,273.692 256.025,273.192 255.5,272.5C 256.23,270.994 256.563,269.66 256.5,268.5C 257.251,269.376 257.751,270.376 258,271.5C 258.669,268.972 259.502,268.972 260.5,271.5C 259.968,273.741 258.635,275.241 256.5,276C 257.667,276.5 258.5,277.333 259,278.5C 260.635,277.151 262.135,277.318 263.5,279C 261.744,279.202 260.078,279.702 258.5,280.5C 259.025,281.192 259.692,281.692 260.5,282C 258.536,282.624 256.869,282.124 255.5,280.5C 252.833,282.167 252.833,283.833 255.5,285.5C 257.529,284.371 257.863,284.871 256.5,287C 258.017,288.779 258.851,288.279 259,285.5C 259.626,287.991 260.459,287.991 261.5,285.5C 262.696,285.846 262.696,286.346 261.5,287C 264.022,288.69 266.522,288.524 269,286.5C 270.872,287.068 272.705,287.735 274.5,288.5C 275.521,287.998 275.688,287.332 275,286.5C 272.54,285.042 270.373,283.209 268.5,281C 270.878,280.026 270.544,279.359 267.5,279C 268.167,278.667 268.833,278.333 269.5,278C 267.833,277.667 266.167,277.333 264.5,277C 266.35,275.155 266.683,273.155 265.5,271C 267.975,269.257 267.975,268.257 265.5,268C 264.789,269.255 263.956,270.421 263,271.5C 261.176,270.251 261.343,269.085 263.5,268C 263.167,267.667 262.833,267.333 262.5,267C 264.918,266.085 266.918,264.585 268.5,262.5C 270.486,262.315 272.486,262.982 274.5,264.5C 273.313,264.554 271.98,264.887 270.5,265.5C 271.61,267.496 271.276,269.329 269.5,271C 273.837,273.687 275.671,272.854 275,268.5C 277.217,272.444 278.717,272.277 279.5,268C 278.551,267.383 277.718,267.549 277,268.5C 276.242,266.231 276.409,264.064 277.5,262C 276.151,261.228 275.318,260.061 275,258.5C 272.219,258.869 269.552,258.869 267,258.5C 266.878,256.831 267.212,255.165 268,253.5C 268.414,253.957 268.914,254.291 269.5,254.5C 270.5,252.833 271.833,251.5 273.5,250.5C 272.833,250.167 272.167,249.833 271.5,249.5C 273.716,245.894 276.382,245.561 279.5,248.5C 280.086,248.291 280.586,247.957 281,247.5C 280.778,245.544 279.945,243.71 278.5,242C 280,239.833 281.167,240 282,242.5C 284.023,240.987 283.856,239.654 281.5,238.5C 284.058,236.88 284.058,235.38 281.5,234C 282.931,233.535 284.097,232.701 285,231.5C 286.647,230.86 288.481,230.86 290.5,231.5C 291.647,231.182 292.481,230.516 293,229.5C 293.5,231.333 294.667,232.5 296.5,233C 292.551,234.726 291.218,237.559 292.5,241.5C 293.328,240.585 294.328,239.919 295.5,239.5C 297.687,240.072 300.021,240.072 302.5,239.5C 302.297,237.61 302.963,236.11 304.5,235C 304.757,233.629 304.423,232.129 303.5,230.5C 303.556,229.263 304.056,228.263 305,227.5C 307.234,228.891 309.567,230.891 312,233.5C 313.892,232.87 315.559,231.87 317,230.5C 317.707,232.081 318.54,233.581 319.5,235C 316.957,235.14 314.623,235.806 312.5,237C 316.797,238.143 318.631,240.976 318,245.5C 318.154,242.475 319.654,240.809 322.5,240.5C 322.64,238.876 321.973,237.71 320.5,237C 322.5,236.667 324.5,236.333 326.5,236C 324.945,234.354 323.279,234.021 321.5,235C 324.216,232.207 323.882,230.04 320.5,228.5C 321.569,228.36 322.736,228.36 324,228.5C 326.349,226.256 325.849,225.089 322.5,225C 322.833,224 323.167,223 323.5,222C 322.736,219.931 322.236,217.764 322,215.5C 318.938,213.87 317.271,214.87 317,218.5C 315.745,217.789 314.579,216.956 313.5,216C 314.743,214.846 315.743,213.512 316.5,212C 314.291,211.043 314.457,209.876 317,208.5C 318.576,207.68 320.743,207.68 323.5,208.5C 323.233,205.225 324.233,204.392 326.5,206C 326.167,206.333 325.833,206.667 325.5,207C 327.433,207.251 329.266,207.751 331,208.5C 332.333,207.167 333.667,207.167 335,208.5C 337.373,205.878 339.707,205.545 342,207.5C 343.225,207.138 344.391,206.638 345.5,206C 344.549,205.282 344.383,204.449 345,203.5C 346.008,203.982 347.175,204.148 348.5,204C 346.026,206.428 346.526,206.928 350,205.5C 350.807,209.449 351.307,209.449 351.5,205.5C 353.433,205.271 355.1,204.438 356.5,203C 355.584,202.626 354.75,202.126 354,201.5C 353.692,202.308 353.192,202.975 352.5,203.5C 351.289,202.726 351.289,201.893 352.5,201C 354.748,198.956 356.748,199.123 358.5,201.5C 359.7,200.469 361.034,199.635 362.5,199C 361.167,197.333 361.167,195.667 362.5,194C 365.921,193.899 369.088,193.066 372,191.5C 372.5,191.833 373,192.167 373.5,192.5C 372.5,193.833 371.5,195.167 370.5,196.5C 371.616,196.402 372.616,196.902 373.5,198C 374.544,200.174 374.544,202.674 373.5,205.5C 372.127,205.343 370.793,205.51 369.5,206C 372.273,209.003 371.773,211.503 368,213.5C 367.055,213.095 366.388,212.428 366,211.5C 365.163,213.351 364.329,215.184 363.5,217C 364.325,218.688 365.325,218.855 366.5,217.5C 367.914,218.465 368.747,219.465 369,220.5C 369.5,220.167 370,219.833 370.5,219.5C 369.674,218.549 369.508,217.549 370,216.5C 371.629,217.565 372.796,218.899 373.5,220.5C 376.171,218.509 379.004,218.509 382,220.5C 384.185,218.46 386.685,217.126 389.5,216.5 Z"
    />
  </g>
  <g>
    <path
      style="opacity: 1"
      fill="#061024"
      d="M 496.5,255.5 C 496.5,297.167 496.5,338.833 496.5,380.5C 459.136,380.815 421.803,380.481 384.5,379.5C 421.33,378.502 458.33,378.168 495.5,378.5C 495.168,337.33 495.501,296.33 496.5,255.5 Z"
    />
  </g>
  <g>
    <path
      style="opacity: 1"
      fill="#000008"
      d="M 769.5,636.5 C 769.667,535.499 769.5,434.499 769,333.5C 765.689,335.903 762.189,337.903 758.5,339.5C 761.319,336.925 764.319,334.592 767.5,332.5C 768.15,332.196 768.817,331.863 769.5,331.5C 770.832,433.333 770.832,534.999 769.5,636.5 Z"
    />
  </g>
  <g>
    <path
      style="opacity: 1"
      fill="#000010"
      d="M 527.5,488.5 C 526.511,511.092 526.178,533.758 526.5,556.5C 563.835,556.333 601.168,556.5 638.5,557C 600.835,557.5 563.168,557.667 525.5,557.5C 524.844,534.142 525.51,511.142 527.5,488.5 Z"
    />
  </g>
  <g>
    <path
      style="opacity: 1"
      fill="#052641"
      d="M 635.5,587.5 C 641.172,588.781 646.505,590.947 651.5,594C 684.997,615.916 718.663,637.583 752.5,659C 756.975,661.314 760.642,664.48 763.5,668.5C 763.818,672.689 762.152,675.855 758.5,678C 679.167,730 599.833,782 520.5,834C 512.874,836.42 505.54,835.753 498.5,832C 476.5,817.333 454.5,802.667 432.5,788C 435.986,786.004 439.319,783.837 442.5,781.5C 464.805,767.01 487.138,752.51 509.5,738C 518.013,731.356 523.346,722.856 525.5,712.5C 526.5,671.906 526.833,630.572 526.5,588.5C 563.004,588.832 599.337,588.498 635.5,587.5 Z"
    />
  </g>
  <g>
    <path
      style="opacity: 1"
      fill="#171c24"
      d="M 635.5,587.5 C 599.337,588.498 563.004,588.832 526.5,588.5C 526.833,630.572 526.5,671.906 525.5,712.5C 525.5,670.5 525.5,628.5 525.5,586.5C 562.197,586.186 598.864,586.519 635.5,587.5 Z"
    />
  </g>
  <g>
    <path
      style="opacity: 1"
      fill="#00000a"
      d="M 496.5,706.5 C 495.667,641.668 495.167,576.668 495,511.5C 494.31,512.738 493.81,512.738 493.5,511.5C 494.172,510.733 495.005,510.066 496,509.5C 496.5,575.166 496.667,640.832 496.5,706.5 Z"
    />
  </g>
</svg>
