<svg xmlns="http://www.w3.org/2000/svg" xmlns:xlink="http://www.w3.org/1999/xlink" viewBox="0 0 275 275"><defs><linearGradient id="a" x1="493.32" y1="567.24" x2="493.32" y2="479.24" gradientTransform="matrix(3.12, 0, 0, -3.12, -1056.12, 2150.12)" gradientUnits="userSpaceOnUse"><stop offset="0" stop-color="#f5f5f6"/><stop offset="1" stop-color="#ededee"/></linearGradient></defs><title>Yandex Browser logo</title><path d="M623,515A137.5,137.5,0,1,1,485.5,377.5,137.5,137.5,0,0,1,623,515" transform="translate(-348 -377.5)" style="fill:url(#a)"/><path d="M616.34,515A130.84,130.84,0,1,1,485.5,384.16,130.84,130.84,0,0,1,616.34,515" transform="translate(-348 -377.5)" style="fill:#fff"/><path d="M574,458.28l-73.58,72v89.48c0,1.61-7,2.9-14.93,3-7.63-.11-14.93-1.4-14.93-3V530.25l-73.58-72c-1.18-1.18,2.58-6.77,8.38-12.57s11.49-9.56,12.57-8.38l67.46,65.85,67.46-65.85c1.18-1.18,6.77,2.58,12.57,8.38s9.67,11.39,8.59,12.57" transform="translate(-348 -377.5)" style="fill:#ec1c24"/></svg>